<mxfile host="65bd71144e">
    <diagram id="VXIubfkonOULxpjzU7ml" name="Page-1">
        <mxGraphModel dx="751" dy="732" grid="1" gridSize="10" guides="1" tooltips="1" connect="1" arrows="1" fold="1" page="1" pageScale="1" pageWidth="320" pageHeight="300" math="0" shadow="0">
            <root>
                <mxCell id="0"/>
                <mxCell id="1" parent="0"/>
                <mxCell id="2" value="" style="childLayout=tableLayout;recursiveResize=0;shadow=0;fillColor=none;strokeColor=#FFFFFF;" vertex="1" parent="1">
                    <mxGeometry x="20" y="10" width="90" height="90" as="geometry"/>
                </mxCell>
                <mxCell id="3" value="" style="shape=tableRow;horizontal=0;startSize=0;swimlaneHead=0;swimlaneBody=0;top=0;left=0;bottom=0;right=0;dropTarget=0;collapsible=0;recursiveResize=0;expand=0;fontStyle=0;fillColor=none;strokeColor=inherit;" vertex="1" parent="2">
                    <mxGeometry width="90" height="30" as="geometry"/>
                </mxCell>
                <mxCell id="4" value="-1" style="connectable=0;recursiveResize=0;align=center;whiteSpace=wrap;html=1;fillColor=#242424;" vertex="1" parent="3">
                    <mxGeometry width="30" height="30" as="geometry">
                        <mxRectangle width="30" height="30" as="alternateBounds"/>
                    </mxGeometry>
                </mxCell>
                <mxCell id="5" value="0" style="connectable=0;recursiveResize=0;align=center;whiteSpace=wrap;html=1;fillColor=#6B6B6B;" vertex="1" parent="3">
                    <mxGeometry x="30" width="30" height="30" as="geometry">
                        <mxRectangle width="30" height="30" as="alternateBounds"/>
                    </mxGeometry>
                </mxCell>
                <mxCell id="6" value="+1" style="connectable=0;recursiveResize=0;align=center;whiteSpace=wrap;html=1;fillColor=#E0E0E0;fontColor=#242424;" vertex="1" parent="3">
                    <mxGeometry x="60" width="30" height="30" as="geometry">
                        <mxRectangle width="30" height="30" as="alternateBounds"/>
                    </mxGeometry>
                </mxCell>
                <mxCell id="7" style="shape=tableRow;horizontal=0;startSize=0;swimlaneHead=0;swimlaneBody=0;top=0;left=0;bottom=0;right=0;dropTarget=0;collapsible=0;recursiveResize=0;expand=0;fontStyle=0;fillColor=none;strokeColor=inherit;" vertex="1" parent="2">
                    <mxGeometry y="30" width="90" height="30" as="geometry"/>
                </mxCell>
                <mxCell id="8" value="-2" style="connectable=0;recursiveResize=0;align=center;whiteSpace=wrap;html=1;fillColor=#121212;" vertex="1" parent="7">
                    <mxGeometry width="30" height="30" as="geometry">
                        <mxRectangle width="30" height="30" as="alternateBounds"/>
                    </mxGeometry>
                </mxCell>
                <mxCell id="9" value="0" style="connectable=0;recursiveResize=0;align=center;whiteSpace=wrap;html=1;fillColor=#6B6B6B;" vertex="1" parent="7">
                    <mxGeometry x="30" width="30" height="30" as="geometry">
                        <mxRectangle width="30" height="30" as="alternateBounds"/>
                    </mxGeometry>
                </mxCell>
                <mxCell id="10" value="+2" style="connectable=0;recursiveResize=0;align=center;whiteSpace=wrap;html=1;fillColor=#F5F5F5;fontColor=#242424;" vertex="1" parent="7">
                    <mxGeometry x="60" width="30" height="30" as="geometry">
                        <mxRectangle width="30" height="30" as="alternateBounds"/>
                    </mxGeometry>
                </mxCell>
                <mxCell id="11" style="shape=tableRow;horizontal=0;startSize=0;swimlaneHead=0;swimlaneBody=0;top=0;left=0;bottom=0;right=0;dropTarget=0;collapsible=0;recursiveResize=0;expand=0;fontStyle=0;fillColor=none;strokeColor=inherit;" vertex="1" parent="2">
                    <mxGeometry y="60" width="90" height="30" as="geometry"/>
                </mxCell>
                <mxCell id="12" value="-1" style="connectable=0;recursiveResize=0;align=center;whiteSpace=wrap;html=1;fillColor=#242424;" vertex="1" parent="11">
                    <mxGeometry width="30" height="30" as="geometry">
                        <mxRectangle width="30" height="30" as="alternateBounds"/>
                    </mxGeometry>
                </mxCell>
                <mxCell id="13" value="0" style="connectable=0;recursiveResize=0;align=center;whiteSpace=wrap;html=1;fillColor=#6B6B6B;" vertex="1" parent="11">
                    <mxGeometry x="30" width="30" height="30" as="geometry">
                        <mxRectangle width="30" height="30" as="alternateBounds"/>
                    </mxGeometry>
                </mxCell>
                <mxCell id="14" value="+1" style="connectable=0;recursiveResize=0;align=center;whiteSpace=wrap;html=1;fillColor=#E0E0E0;fontColor=#242424;" vertex="1" parent="11">
                    <mxGeometry x="60" width="30" height="30" as="geometry">
                        <mxRectangle width="30" height="30" as="alternateBounds"/>
                    </mxGeometry>
                </mxCell>
                <mxCell id="15" value="" style="childLayout=tableLayout;recursiveResize=0;shadow=0;fillColor=none;strokeColor=#FFFFFF;" vertex="1" parent="1">
                    <mxGeometry x="150" y="10" width="90" height="90" as="geometry"/>
                </mxCell>
                <mxCell id="16" value="" style="shape=tableRow;horizontal=0;startSize=0;swimlaneHead=0;swimlaneBody=0;top=0;left=0;bottom=0;right=0;dropTarget=0;collapsible=0;recursiveResize=0;expand=0;fontStyle=0;fillColor=none;strokeColor=inherit;" vertex="1" parent="15">
                    <mxGeometry width="90" height="30" as="geometry"/>
                </mxCell>
                <mxCell id="17" value="-1" style="connectable=0;recursiveResize=0;align=center;whiteSpace=wrap;html=1;fillColor=#242424;" vertex="1" parent="16">
                    <mxGeometry width="30" height="30" as="geometry">
                        <mxRectangle width="30" height="30" as="alternateBounds"/>
                    </mxGeometry>
                </mxCell>
                <mxCell id="18" value="0" style="connectable=0;recursiveResize=0;align=center;whiteSpace=wrap;html=1;fillColor=#6B6B6B;" vertex="1" parent="16">
                    <mxGeometry x="30" width="30" height="30" as="geometry">
                        <mxRectangle width="30" height="30" as="alternateBounds"/>
                    </mxGeometry>
                </mxCell>
                <mxCell id="19" value="+1" style="connectable=0;recursiveResize=0;align=center;whiteSpace=wrap;html=1;fillColor=#E0E0E0;fontColor=#242424;" vertex="1" parent="16">
                    <mxGeometry x="60" width="30" height="30" as="geometry">
                        <mxRectangle width="30" height="30" as="alternateBounds"/>
                    </mxGeometry>
                </mxCell>
                <mxCell id="20" style="shape=tableRow;horizontal=0;startSize=0;swimlaneHead=0;swimlaneBody=0;top=0;left=0;bottom=0;right=0;dropTarget=0;collapsible=0;recursiveResize=0;expand=0;fontStyle=0;fillColor=none;strokeColor=inherit;" vertex="1" parent="15">
                    <mxGeometry y="30" width="90" height="30" as="geometry"/>
                </mxCell>
                <mxCell id="21" value="-2" style="connectable=0;recursiveResize=0;align=center;whiteSpace=wrap;html=1;fillColor=#121212;" vertex="1" parent="20">
                    <mxGeometry width="30" height="30" as="geometry">
                        <mxRectangle width="30" height="30" as="alternateBounds"/>
                    </mxGeometry>
                </mxCell>
                <mxCell id="22" value="0" style="connectable=0;recursiveResize=0;align=center;whiteSpace=wrap;html=1;fillColor=#6B6B6B;" vertex="1" parent="20">
                    <mxGeometry x="30" width="30" height="30" as="geometry">
                        <mxRectangle width="30" height="30" as="alternateBounds"/>
                    </mxGeometry>
                </mxCell>
                <mxCell id="23" value="+2" style="connectable=0;recursiveResize=0;align=center;whiteSpace=wrap;html=1;fillColor=#F5F5F5;fontColor=#242424;" vertex="1" parent="20">
                    <mxGeometry x="60" width="30" height="30" as="geometry">
                        <mxRectangle width="30" height="30" as="alternateBounds"/>
                    </mxGeometry>
                </mxCell>
                <mxCell id="24" style="shape=tableRow;horizontal=0;startSize=0;swimlaneHead=0;swimlaneBody=0;top=0;left=0;bottom=0;right=0;dropTarget=0;collapsible=0;recursiveResize=0;expand=0;fontStyle=0;fillColor=none;strokeColor=inherit;" vertex="1" parent="15">
                    <mxGeometry y="60" width="90" height="30" as="geometry"/>
                </mxCell>
                <mxCell id="25" value="-1" style="connectable=0;recursiveResize=0;align=center;whiteSpace=wrap;html=1;fillColor=#242424;" vertex="1" parent="24">
                    <mxGeometry width="30" height="30" as="geometry">
                        <mxRectangle width="30" height="30" as="alternateBounds"/>
                    </mxGeometry>
                </mxCell>
                <mxCell id="26" value="0" style="connectable=0;recursiveResize=0;align=center;whiteSpace=wrap;html=1;fillColor=#6B6B6B;" vertex="1" parent="24">
                    <mxGeometry x="30" width="30" height="30" as="geometry">
                        <mxRectangle width="30" height="30" as="alternateBounds"/>
                    </mxGeometry>
                </mxCell>
                <mxCell id="27" value="+1" style="connectable=0;recursiveResize=0;align=center;whiteSpace=wrap;html=1;fillColor=#E0E0E0;fontColor=#242424;" vertex="1" parent="24">
                    <mxGeometry x="60" width="30" height="30" as="geometry">
                        <mxRectangle width="30" height="30" as="alternateBounds"/>
                    </mxGeometry>
                </mxCell>
                <mxCell id="28" value="0" style="shape=ext;double=1;rounded=0;whiteSpace=wrap;html=1;strokeColor=#FFFFFF;fontColor=#D4D4D4;fillColor=#6B6B6B;" vertex="1" parent="1">
                    <mxGeometry x="280" y="37" width="36" height="36" as="geometry"/>
                </mxCell>
                <mxCell id="29" value="" style="childLayout=tableLayout;recursiveResize=0;shadow=0;fillColor=none;strokeColor=#FFFFFF;" vertex="1" parent="1">
                    <mxGeometry x="20" y="110" width="90" height="80" as="geometry"/>
                </mxCell>
                <mxCell id="30" value="" style="shape=tableRow;horizontal=0;startSize=0;swimlaneHead=0;swimlaneBody=0;top=0;left=0;bottom=0;right=0;dropTarget=0;collapsible=0;recursiveResize=0;expand=0;fontStyle=0;fillColor=none;strokeColor=inherit;" vertex="1" parent="29">
                    <mxGeometry width="90" height="27" as="geometry"/>
                </mxCell>
                <mxCell id="31" value="-1" style="connectable=0;recursiveResize=0;align=center;whiteSpace=wrap;html=1;fillColor=#242424;" vertex="1" parent="30">
                    <mxGeometry width="30" height="27" as="geometry">
                        <mxRectangle width="30" height="27" as="alternateBounds"/>
                    </mxGeometry>
                </mxCell>
                <mxCell id="32" value="0" style="connectable=0;recursiveResize=0;align=center;whiteSpace=wrap;html=1;fillColor=#6B6B6B;" vertex="1" parent="30">
                    <mxGeometry x="30" width="30" height="27" as="geometry">
                        <mxRectangle width="30" height="27" as="alternateBounds"/>
                    </mxGeometry>
                </mxCell>
                <mxCell id="33" value="+1" style="connectable=0;recursiveResize=0;align=center;whiteSpace=wrap;html=1;fillColor=#E0E0E0;fontColor=#242424;" vertex="1" parent="30">
                    <mxGeometry x="60" width="30" height="27" as="geometry">
                        <mxRectangle width="30" height="27" as="alternateBounds"/>
                    </mxGeometry>
                </mxCell>
                <mxCell id="34" style="shape=tableRow;horizontal=0;startSize=0;swimlaneHead=0;swimlaneBody=0;top=0;left=0;bottom=0;right=0;dropTarget=0;collapsible=0;recursiveResize=0;expand=0;fontStyle=0;fillColor=none;strokeColor=inherit;" vertex="1" parent="29">
                    <mxGeometry y="27" width="90" height="26" as="geometry"/>
                </mxCell>
                <mxCell id="35" value="-2" style="connectable=0;recursiveResize=0;align=center;whiteSpace=wrap;html=1;fillColor=#121212;" vertex="1" parent="34">
                    <mxGeometry width="30" height="26" as="geometry">
                        <mxRectangle width="30" height="26" as="alternateBounds"/>
                    </mxGeometry>
                </mxCell>
                <mxCell id="36" value="0" style="connectable=0;recursiveResize=0;align=center;whiteSpace=wrap;html=1;fillColor=#6B6B6B;" vertex="1" parent="34">
                    <mxGeometry x="30" width="30" height="26" as="geometry">
                        <mxRectangle width="30" height="26" as="alternateBounds"/>
                    </mxGeometry>
                </mxCell>
                <mxCell id="37" value="+2" style="connectable=0;recursiveResize=0;align=center;whiteSpace=wrap;html=1;fillColor=#F5F5F5;fontColor=#242424;" vertex="1" parent="34">
                    <mxGeometry x="60" width="30" height="26" as="geometry">
                        <mxRectangle width="30" height="26" as="alternateBounds"/>
                    </mxGeometry>
                </mxCell>
                <mxCell id="38" style="shape=tableRow;horizontal=0;startSize=0;swimlaneHead=0;swimlaneBody=0;top=0;left=0;bottom=0;right=0;dropTarget=0;collapsible=0;recursiveResize=0;expand=0;fontStyle=0;fillColor=none;strokeColor=inherit;" vertex="1" parent="29">
                    <mxGeometry y="53" width="90" height="27" as="geometry"/>
                </mxCell>
                <mxCell id="39" value="-1" style="connectable=0;recursiveResize=0;align=center;whiteSpace=wrap;html=1;fillColor=#242424;" vertex="1" parent="38">
                    <mxGeometry width="30" height="27" as="geometry">
                        <mxRectangle width="30" height="27" as="alternateBounds"/>
                    </mxGeometry>
                </mxCell>
                <mxCell id="40" value="0" style="connectable=0;recursiveResize=0;align=center;whiteSpace=wrap;html=1;fillColor=#6B6B6B;" vertex="1" parent="38">
                    <mxGeometry x="30" width="30" height="27" as="geometry">
                        <mxRectangle width="30" height="27" as="alternateBounds"/>
                    </mxGeometry>
                </mxCell>
                <mxCell id="41" value="+1" style="connectable=0;recursiveResize=0;align=center;whiteSpace=wrap;html=1;fillColor=#E0E0E0;fontColor=#242424;" vertex="1" parent="38">
                    <mxGeometry x="60" width="30" height="27" as="geometry">
                        <mxRectangle width="30" height="27" as="alternateBounds"/>
                    </mxGeometry>
                </mxCell>
                <mxCell id="42" value="" style="childLayout=tableLayout;recursiveResize=0;shadow=0;fillColor=none;strokeColor=#FFFFFF;" vertex="1" parent="1">
                    <mxGeometry x="150" y="110" width="90" height="80" as="geometry"/>
                </mxCell>
                <mxCell id="43" value="" style="shape=tableRow;horizontal=0;startSize=0;swimlaneHead=0;swimlaneBody=0;top=0;left=0;bottom=0;right=0;dropTarget=0;collapsible=0;recursiveResize=0;expand=0;fontStyle=0;fillColor=none;strokeColor=inherit;" vertex="1" parent="42">
                    <mxGeometry width="90" height="27" as="geometry"/>
                </mxCell>
                <mxCell id="44" value="+1" style="connectable=0;recursiveResize=0;align=center;whiteSpace=wrap;html=1;fillColor=#D4D4D4;fontColor=#121212;" vertex="1" parent="43">
                    <mxGeometry width="30" height="27" as="geometry">
                        <mxRectangle width="30" height="27" as="alternateBounds"/>
                    </mxGeometry>
                </mxCell>
                <mxCell id="45" value="0" style="connectable=0;recursiveResize=0;align=center;whiteSpace=wrap;html=1;fillColor=#6B6B6B;" vertex="1" parent="43">
                    <mxGeometry x="30" width="30" height="27" as="geometry">
                        <mxRectangle width="30" height="27" as="alternateBounds"/>
                    </mxGeometry>
                </mxCell>
                <mxCell id="46" value="-1" style="connectable=0;recursiveResize=0;align=center;whiteSpace=wrap;html=1;fillColor=#242424;fontColor=#F5F5F5;" vertex="1" parent="43">
                    <mxGeometry x="60" width="30" height="27" as="geometry">
                        <mxRectangle width="30" height="27" as="alternateBounds"/>
                    </mxGeometry>
                </mxCell>
                <mxCell id="47" style="shape=tableRow;horizontal=0;startSize=0;swimlaneHead=0;swimlaneBody=0;top=0;left=0;bottom=0;right=0;dropTarget=0;collapsible=0;recursiveResize=0;expand=0;fontStyle=0;fillColor=none;strokeColor=inherit;" vertex="1" parent="42">
                    <mxGeometry y="27" width="90" height="26" as="geometry"/>
                </mxCell>
                <mxCell id="48" value="+2" style="connectable=0;recursiveResize=0;align=center;whiteSpace=wrap;html=1;fillColor=#F5F5F5;fontColor=#121212;" vertex="1" parent="47">
                    <mxGeometry width="30" height="26" as="geometry">
                        <mxRectangle width="30" height="26" as="alternateBounds"/>
                    </mxGeometry>
                </mxCell>
                <mxCell id="49" value="0" style="connectable=0;recursiveResize=0;align=center;whiteSpace=wrap;html=1;fillColor=#6B6B6B;" vertex="1" parent="47">
                    <mxGeometry x="30" width="30" height="26" as="geometry">
                        <mxRectangle width="30" height="26" as="alternateBounds"/>
                    </mxGeometry>
                </mxCell>
                <mxCell id="50" value="-2" style="connectable=0;recursiveResize=0;align=center;whiteSpace=wrap;html=1;fillColor=#121212;fontColor=#F5F5F5;" vertex="1" parent="47">
                    <mxGeometry x="60" width="30" height="26" as="geometry">
                        <mxRectangle width="30" height="26" as="alternateBounds"/>
                    </mxGeometry>
                </mxCell>
                <mxCell id="51" style="shape=tableRow;horizontal=0;startSize=0;swimlaneHead=0;swimlaneBody=0;top=0;left=0;bottom=0;right=0;dropTarget=0;collapsible=0;recursiveResize=0;expand=0;fontStyle=0;fillColor=none;strokeColor=inherit;" vertex="1" parent="42">
                    <mxGeometry y="53" width="90" height="27" as="geometry"/>
                </mxCell>
                <mxCell id="52" value="+1" style="connectable=0;recursiveResize=0;align=center;whiteSpace=wrap;html=1;fillColor=#D4D4D4;fontColor=#121212;" vertex="1" parent="51">
                    <mxGeometry width="30" height="27" as="geometry">
                        <mxRectangle width="30" height="27" as="alternateBounds"/>
                    </mxGeometry>
                </mxCell>
                <mxCell id="53" value="0" style="connectable=0;recursiveResize=0;align=center;whiteSpace=wrap;html=1;fillColor=#6B6B6B;" vertex="1" parent="51">
                    <mxGeometry x="30" width="30" height="27" as="geometry">
                        <mxRectangle width="30" height="27" as="alternateBounds"/>
                    </mxGeometry>
                </mxCell>
                <mxCell id="54" value="-1" style="connectable=0;recursiveResize=0;align=center;whiteSpace=wrap;html=1;fillColor=#242424;fontColor=#F5F5F5;" vertex="1" parent="51">
                    <mxGeometry x="60" width="30" height="27" as="geometry">
                        <mxRectangle width="30" height="27" as="alternateBounds"/>
                    </mxGeometry>
                </mxCell>
                <mxCell id="69" value="-12" style="shape=ext;double=1;rounded=0;whiteSpace=wrap;html=1;strokeColor=#FFFFFF;fontColor=#D4D4D4;fillColor=#242424;" vertex="1" parent="1">
                    <mxGeometry x="280" y="130" width="36" height="40" as="geometry"/>
                </mxCell>
                <mxCell id="70" value="" style="childLayout=tableLayout;recursiveResize=0;shadow=0;fillColor=none;strokeColor=#FFFFFF;" vertex="1" parent="1">
                    <mxGeometry x="20" y="200" width="90" height="90" as="geometry"/>
                </mxCell>
                <mxCell id="71" value="" style="shape=tableRow;horizontal=0;startSize=0;swimlaneHead=0;swimlaneBody=0;top=0;left=0;bottom=0;right=0;dropTarget=0;collapsible=0;recursiveResize=0;expand=0;fontStyle=0;fillColor=none;strokeColor=inherit;" vertex="1" parent="70">
                    <mxGeometry width="90" height="30" as="geometry"/>
                </mxCell>
                <mxCell id="72" value="-1" style="connectable=0;recursiveResize=0;align=center;whiteSpace=wrap;html=1;fillColor=#242424;" vertex="1" parent="71">
                    <mxGeometry width="30" height="30" as="geometry">
                        <mxRectangle width="30" height="30" as="alternateBounds"/>
                    </mxGeometry>
                </mxCell>
                <mxCell id="73" value="0" style="connectable=0;recursiveResize=0;align=center;whiteSpace=wrap;html=1;fillColor=#6B6B6B;" vertex="1" parent="71">
                    <mxGeometry x="30" width="30" height="30" as="geometry">
                        <mxRectangle width="30" height="30" as="alternateBounds"/>
                    </mxGeometry>
                </mxCell>
                <mxCell id="74" value="+1" style="connectable=0;recursiveResize=0;align=center;whiteSpace=wrap;html=1;fillColor=#E0E0E0;fontColor=#242424;" vertex="1" parent="71">
                    <mxGeometry x="60" width="30" height="30" as="geometry">
                        <mxRectangle width="30" height="30" as="alternateBounds"/>
                    </mxGeometry>
                </mxCell>
                <mxCell id="75" style="shape=tableRow;horizontal=0;startSize=0;swimlaneHead=0;swimlaneBody=0;top=0;left=0;bottom=0;right=0;dropTarget=0;collapsible=0;recursiveResize=0;expand=0;fontStyle=0;fillColor=none;strokeColor=inherit;" vertex="1" parent="70">
                    <mxGeometry y="30" width="90" height="30" as="geometry"/>
                </mxCell>
                <mxCell id="76" value="-2" style="connectable=0;recursiveResize=0;align=center;whiteSpace=wrap;html=1;fillColor=#121212;" vertex="1" parent="75">
                    <mxGeometry width="30" height="30" as="geometry">
                        <mxRectangle width="30" height="30" as="alternateBounds"/>
                    </mxGeometry>
                </mxCell>
                <mxCell id="77" value="0" style="connectable=0;recursiveResize=0;align=center;whiteSpace=wrap;html=1;fillColor=#6B6B6B;" vertex="1" parent="75">
                    <mxGeometry x="30" width="30" height="30" as="geometry">
                        <mxRectangle width="30" height="30" as="alternateBounds"/>
                    </mxGeometry>
                </mxCell>
                <mxCell id="78" value="+2" style="connectable=0;recursiveResize=0;align=center;whiteSpace=wrap;html=1;fillColor=#F5F5F5;fontColor=#242424;" vertex="1" parent="75">
                    <mxGeometry x="60" width="30" height="30" as="geometry">
                        <mxRectangle width="30" height="30" as="alternateBounds"/>
                    </mxGeometry>
                </mxCell>
                <mxCell id="79" style="shape=tableRow;horizontal=0;startSize=0;swimlaneHead=0;swimlaneBody=0;top=0;left=0;bottom=0;right=0;dropTarget=0;collapsible=0;recursiveResize=0;expand=0;fontStyle=0;fillColor=none;strokeColor=inherit;" vertex="1" parent="70">
                    <mxGeometry y="60" width="90" height="30" as="geometry"/>
                </mxCell>
                <mxCell id="80" value="-1" style="connectable=0;recursiveResize=0;align=center;whiteSpace=wrap;html=1;fillColor=#242424;" vertex="1" parent="79">
                    <mxGeometry width="30" height="30" as="geometry">
                        <mxRectangle width="30" height="30" as="alternateBounds"/>
                    </mxGeometry>
                </mxCell>
                <mxCell id="81" value="0" style="connectable=0;recursiveResize=0;align=center;whiteSpace=wrap;html=1;fillColor=#6B6B6B;" vertex="1" parent="79">
                    <mxGeometry x="30" width="30" height="30" as="geometry">
                        <mxRectangle width="30" height="30" as="alternateBounds"/>
                    </mxGeometry>
                </mxCell>
                <mxCell id="82" value="+1" style="connectable=0;recursiveResize=0;align=center;whiteSpace=wrap;html=1;fillColor=#E0E0E0;fontColor=#242424;" vertex="1" parent="79">
                    <mxGeometry x="60" width="30" height="30" as="geometry">
                        <mxRectangle width="30" height="30" as="alternateBounds"/>
                    </mxGeometry>
                </mxCell>
                <mxCell id="83" value="" style="childLayout=tableLayout;recursiveResize=0;shadow=0;fillColor=none;strokeColor=#FFFFFF;" vertex="1" parent="1">
                    <mxGeometry x="150" y="200" width="90" height="90" as="geometry"/>
                </mxCell>
                <mxCell id="84" value="" style="shape=tableRow;horizontal=0;startSize=0;swimlaneHead=0;swimlaneBody=0;top=0;left=0;bottom=0;right=0;dropTarget=0;collapsible=0;recursiveResize=0;expand=0;fontStyle=0;fillColor=none;strokeColor=inherit;" vertex="1" parent="83">
                    <mxGeometry width="90" height="30" as="geometry"/>
                </mxCell>
                <mxCell id="85" value="+1" style="connectable=0;recursiveResize=0;align=center;whiteSpace=wrap;html=1;fillColor=#D4D4D4;fontColor=#242424;" vertex="1" parent="84">
                    <mxGeometry width="30" height="30" as="geometry">
                        <mxRectangle width="30" height="30" as="alternateBounds"/>
                    </mxGeometry>
                </mxCell>
                <mxCell id="86" value="+2" style="connectable=0;recursiveResize=0;align=center;whiteSpace=wrap;html=1;fillColor=#F5F5F5;fontColor=#242424;" vertex="1" parent="84">
                    <mxGeometry x="30" width="30" height="30" as="geometry">
                        <mxRectangle width="30" height="30" as="alternateBounds"/>
                    </mxGeometry>
                </mxCell>
                <mxCell id="87" value="+1" style="connectable=0;recursiveResize=0;align=center;whiteSpace=wrap;html=1;fillColor=#E0E0E0;fontColor=#242424;" vertex="1" parent="84">
                    <mxGeometry x="60" width="30" height="30" as="geometry">
                        <mxRectangle width="30" height="30" as="alternateBounds"/>
                    </mxGeometry>
                </mxCell>
                <mxCell id="88" style="shape=tableRow;horizontal=0;startSize=0;swimlaneHead=0;swimlaneBody=0;top=0;left=0;bottom=0;right=0;dropTarget=0;collapsible=0;recursiveResize=0;expand=0;fontStyle=0;fillColor=none;strokeColor=inherit;" vertex="1" parent="83">
                    <mxGeometry y="30" width="90" height="30" as="geometry"/>
                </mxCell>
                <mxCell id="89" value="0" style="connectable=0;recursiveResize=0;align=center;whiteSpace=wrap;html=1;fillColor=#6B6B6B;" vertex="1" parent="88">
                    <mxGeometry width="30" height="30" as="geometry">
                        <mxRectangle width="30" height="30" as="alternateBounds"/>
                    </mxGeometry>
                </mxCell>
                <mxCell id="90" value="0" style="connectable=0;recursiveResize=0;align=center;whiteSpace=wrap;html=1;fillColor=#6B6B6B;" vertex="1" parent="88">
                    <mxGeometry x="30" width="30" height="30" as="geometry">
                        <mxRectangle width="30" height="30" as="alternateBounds"/>
                    </mxGeometry>
                </mxCell>
                <mxCell id="91" value="0" style="connectable=0;recursiveResize=0;align=center;whiteSpace=wrap;html=1;fillColor=#6B6B6B;fontColor=#F5F5F5;" vertex="1" parent="88">
                    <mxGeometry x="60" width="30" height="30" as="geometry">
                        <mxRectangle width="30" height="30" as="alternateBounds"/>
                    </mxGeometry>
                </mxCell>
                <mxCell id="92" style="shape=tableRow;horizontal=0;startSize=0;swimlaneHead=0;swimlaneBody=0;top=0;left=0;bottom=0;right=0;dropTarget=0;collapsible=0;recursiveResize=0;expand=0;fontStyle=0;fillColor=none;strokeColor=inherit;" vertex="1" parent="83">
                    <mxGeometry y="60" width="90" height="30" as="geometry"/>
                </mxCell>
                <mxCell id="93" value="-1" style="connectable=0;recursiveResize=0;align=center;whiteSpace=wrap;html=1;fillColor=#242424;" vertex="1" parent="92">
                    <mxGeometry width="30" height="30" as="geometry">
                        <mxRectangle width="30" height="30" as="alternateBounds"/>
                    </mxGeometry>
                </mxCell>
                <mxCell id="94" value="-2" style="connectable=0;recursiveResize=0;align=center;whiteSpace=wrap;html=1;fillColor=#121212;" vertex="1" parent="92">
                    <mxGeometry x="30" width="30" height="30" as="geometry">
                        <mxRectangle width="30" height="30" as="alternateBounds"/>
                    </mxGeometry>
                </mxCell>
                <mxCell id="95" value="&lt;font color=&quot;#f5f5f5&quot;&gt;-1&lt;/font&gt;" style="connectable=0;recursiveResize=0;align=center;whiteSpace=wrap;html=1;fillColor=#242424;fontColor=#242424;" vertex="1" parent="92">
                    <mxGeometry x="60" width="30" height="30" as="geometry">
                        <mxRectangle width="30" height="30" as="alternateBounds"/>
                    </mxGeometry>
                </mxCell>
                <mxCell id="96" value="2" style="shape=ext;double=1;rounded=0;whiteSpace=wrap;html=1;strokeColor=#FFFFFF;fontColor=#D4D4D4;fillColor=#9E9E9E;" vertex="1" parent="1">
                    <mxGeometry x="280" y="225" width="36" height="40" as="geometry"/>
                </mxCell>
                <mxCell id="124" value="X" style="text;html=1;strokeColor=none;fillColor=none;align=center;verticalAlign=middle;whiteSpace=wrap;rounded=0;fontColor=#F5F5F5;" vertex="1" parent="1">
                    <mxGeometry x="110" y="40" width="40" height="30" as="geometry"/>
                </mxCell>
                <mxCell id="125" value="X" style="text;html=1;strokeColor=none;fillColor=none;align=center;verticalAlign=middle;whiteSpace=wrap;rounded=0;fontColor=#F5F5F5;" vertex="1" parent="1">
                    <mxGeometry x="110" y="135" width="40" height="30" as="geometry"/>
                </mxCell>
                <mxCell id="126" value="X" style="text;html=1;strokeColor=none;fillColor=none;align=center;verticalAlign=middle;whiteSpace=wrap;rounded=0;fontColor=#F5F5F5;" vertex="1" parent="1">
                    <mxGeometry x="110" y="230" width="40" height="30" as="geometry"/>
                </mxCell>
                <mxCell id="127" value="=" style="text;html=1;strokeColor=none;fillColor=none;align=center;verticalAlign=middle;whiteSpace=wrap;rounded=0;fontColor=#F5F5F5;" vertex="1" parent="1">
                    <mxGeometry x="240" y="230" width="40" height="30" as="geometry"/>
                </mxCell>
                <mxCell id="128" value="=" style="text;html=1;strokeColor=none;fillColor=none;align=center;verticalAlign=middle;whiteSpace=wrap;rounded=0;fontColor=#F5F5F5;" vertex="1" parent="1">
                    <mxGeometry x="240" y="135" width="40" height="30" as="geometry"/>
                </mxCell>
                <mxCell id="129" value="=" style="text;html=1;strokeColor=none;fillColor=none;align=center;verticalAlign=middle;whiteSpace=wrap;rounded=0;fontColor=#F5F5F5;" vertex="1" parent="1">
                    <mxGeometry x="240" y="40" width="40" height="30" as="geometry"/>
                </mxCell>
            </root>
        </mxGraphModel>
    </diagram>
</mxfile>